<svg version="1.1" id="Layer_1" xmlns="http://www.w3.org/2000/svg" xmlns:xlink="http://www.w3.org/1999/xlink" x="0px" y="0px"
	 width="100%" viewBox="0 0 225 225" enable-background="new 0 0 225 225" xml:space="preserve">
<path fill="#FFFFFE" opacity="1.000000" stroke="none" 
	d="
M152.000000,226.000000 
	C101.333336,226.000000 51.166672,226.000000 1.000007,226.000000 
	C1.000005,151.000000 1.000005,76.000015 1.000002,1.000017 
	C75.999992,1.000011 150.999985,1.000011 225.999969,1.000006 
	C225.999985,75.999985 225.999985,150.999969 226.000000,225.999969 
	C201.500000,226.000000 177.000000,226.000000 152.000000,226.000000 
M73.975594,162.044189 
	C81.804794,162.057510 89.634216,162.113739 97.463158,162.075043 
	C112.941551,161.998535 128.419693,161.869522 144.503036,161.258469 
	C144.303268,156.924438 144.103485,152.590393 143.012726,147.992645 
	C119.702766,148.058563 96.392799,148.124466 72.351791,148.569275 
	C72.591934,152.985809 72.832069,157.402328 73.975594,162.044189 
M84.675804,95.289688 
	C86.441879,96.434547 88.101860,97.806351 89.990395,98.689285 
	C109.480225,107.801231 129.006989,116.834198 148.915634,126.071106 
	C150.768234,121.460037 152.490982,117.172127 154.233734,112.834435 
	C132.282639,102.538429 110.816673,92.469971 88.803566,82.144875 
	C87.112732,86.794479 85.609085,90.929337 83.958267,95.149117 
	C83.958267,95.149117 83.885185,95.193893 83.885185,95.193893 
	C83.885185,95.193893 84.046341,95.015381 84.675804,95.289688 
M75.501305,176.984283 
	C69.751556,176.984283 64.001801,176.984283 57.693665,176.984283 
	C57.693665,161.896347 57.693665,147.673401 57.693665,133.546509 
	C52.537682,133.546509 47.984161,133.546509 43.503708,133.546509 
	C43.503708,152.884476 43.503708,171.776627 43.503708,190.671844 
	C87.091225,190.671844 130.277191,190.671844 173.554077,190.671844 
	C173.554077,171.377884 173.554077,152.496170 173.554077,133.486313 
	C168.632217,133.486313 164.084167,133.486313 158.929901,133.486313 
	C158.929901,148.079758 158.929901,162.301254 158.929901,176.984253 
	C131.047882,176.984253 103.774269,176.984253 75.501305,176.984283 
M75.996284,118.611565 
	C75.310158,121.996834 74.624031,125.382111 73.846359,129.219040 
	C97.529289,134.173264 120.878525,139.057663 144.474319,143.993652 
	C145.310150,140.344299 146.127167,136.985077 146.839218,133.603745 
	C147.432205,130.787857 146.376389,129.428497 143.352341,128.896744 
	C133.228867,127.116653 123.135239,125.147308 113.071579,123.051628 
	C101.830917,120.710831 90.648361,118.089302 79.396393,115.807556 
	C78.473610,115.620422 77.212234,117.102959 75.996284,118.611565 
M173.594620,92.103485 
	C175.823196,90.459480 178.051788,88.815468 180.420212,87.068306 
	C165.905151,67.502396 151.750839,48.422764 137.323669,28.975349 
	C133.396469,31.883726 129.625687,34.676258 125.713837,37.573250 
	C140.198105,57.088528 154.349731,76.155624 168.706741,95.499451 
	C170.333801,94.385208 171.675980,93.466064 173.594620,92.103485 
M114.148232,55.231323 
	C112.978027,54.344730 111.807823,53.458138 110.376244,52.373516 
	C107.339790,56.081409 104.445946,59.615173 101.412743,63.319103 
	C120.176918,78.911980 138.522827,94.157280 157.010101,109.520058 
	C160.268906,105.584595 163.121231,102.140015 166.147293,98.485619 
	C148.911560,84.155914 131.803711,69.932533 114.148232,55.231323 
z"/>
<path fill="#BDBCBC" opacity="1.000000" stroke="none" 
	d="
M76.000977,176.984268 
	C103.774269,176.984253 131.047882,176.984253 158.929901,176.984253 
	C158.929901,162.301254 158.929901,148.079758 158.929901,133.486313 
	C164.084167,133.486313 168.632217,133.486313 173.554077,133.486313 
	C173.554077,152.496170 173.554077,171.377884 173.554077,190.671844 
	C130.277191,190.671844 87.091225,190.671844 43.503708,190.671844 
	C43.503708,171.776627 43.503708,152.884476 43.503708,133.546509 
	C47.984161,133.546509 52.537682,133.546509 57.693665,133.546509 
	C57.693665,147.673401 57.693665,161.896347 57.693665,176.984283 
	C64.001801,176.984283 69.751556,176.984283 76.000977,176.984268 
z"/>
<path fill="#F48126" opacity="1.000000" stroke="none" 
	d="
M76.052231,118.210625 
	C77.212234,117.102959 78.473610,115.620422 79.396393,115.807556 
	C90.648361,118.089302 101.830917,120.710831 113.071579,123.051628 
	C123.135239,125.147308 133.228867,127.116653 143.352341,128.896744 
	C146.376389,129.428497 147.432205,130.787857 146.839218,133.603745 
	C146.127167,136.985077 145.310150,140.344299 144.474319,143.993652 
	C120.878525,139.057663 97.529289,134.173264 73.846359,129.219040 
	C74.624031,125.382111 75.310158,121.996834 76.052231,118.210625 
z"/>
<path fill="#F48023" opacity="1.000000" stroke="none" 
	d="
M173.306396,92.325195 
	C171.675980,93.466064 170.333801,94.385208 168.706741,95.499451 
	C154.349731,76.155624 140.198105,57.088528 125.713837,37.573250 
	C129.625687,34.676258 133.396469,31.883726 137.323669,28.975349 
	C151.750839,48.422764 165.905151,67.502396 180.420212,87.068306 
	C178.051788,88.815468 175.823196,90.459480 173.306396,92.325195 
z"/>
<path fill="#F48124" opacity="1.000000" stroke="none" 
	d="
M84.105431,95.064201 
	C85.609085,90.929337 87.112732,86.794479 88.803566,82.144875 
	C110.816673,92.469971 132.282639,102.538429 154.233734,112.834435 
	C152.490982,117.172127 150.768234,121.460037 148.915634,126.071106 
	C129.006989,116.834198 109.480225,107.801231 89.990395,98.689285 
	C88.101860,97.806351 86.441879,96.434547 84.370895,95.168579 
	C84.065979,95.047478 84.105431,95.064201 84.105431,95.064201 
z"/>
<path fill="#F48022" opacity="1.000000" stroke="none" 
	d="
M114.422050,55.470245 
	C131.803711,69.932533 148.911560,84.155914 166.147293,98.485619 
	C163.121231,102.140015 160.268906,105.584595 157.010101,109.520058 
	C138.522827,94.157280 120.176918,78.911980 101.412743,63.319103 
	C104.445946,59.615173 107.339790,56.081409 110.376244,52.373516 
	C111.807823,53.458138 112.978027,54.344730 114.422050,55.470245 
z"/>
<path fill="#F48125" opacity="1.000000" stroke="none" 
	d="
M143.903717,148.256363 
	C144.103485,152.590393 144.303268,156.924438 143.883850,161.257416 
	C120.455910,161.179489 97.647171,161.096634 74.838371,161.059174 
	C74.250069,161.058212 73.660950,161.554474 73.072205,161.818863 
	C72.832069,157.402328 72.591934,152.985809 73.028488,148.643082 
	C96.504791,148.805511 119.304382,148.899704 142.104080,148.952011 
	C142.703415,148.953384 143.303818,148.498489 143.903717,148.256363 
z"/>
<path fill="#F37600" opacity="1.000000" stroke="none" 
	d="
M143.458221,148.124512 
	C143.303818,148.498489 142.703415,148.953384 142.104080,148.952011 
	C119.304382,148.899704 96.504791,148.805511 73.394012,148.453644 
	C96.392799,148.124466 119.702766,148.058563 143.458221,148.124512 
z"/>
<path fill="#F37600" opacity="1.000000" stroke="none" 
	d="
M73.523903,161.931519 
	C73.660950,161.554474 74.250069,161.058212 74.838371,161.059174 
	C97.647171,161.096634 120.455910,161.179489 143.581299,161.509308 
	C128.419693,161.869522 112.941551,161.998535 97.463158,162.075043 
	C89.634216,162.113739 81.804794,162.057510 73.523903,161.931519 
z"/>
<path fill="#F48124" opacity="1.000000" stroke="none" 
	d="
M84.056160,95.031433 
	C84.046341,95.015381 83.885185,95.193893 83.885185,95.193893 
	C83.885185,95.193893 83.958267,95.149117 84.031845,95.106659 
	C84.105431,95.064201 84.065979,95.047478 84.056160,95.031433 
z"/>
</svg>